<svg xmlns="http://www.w3.org/2000/svg" width="114.258" height="60.457" viewBox="0 0 114.258 60.457">
  <g id="Group_458" data-name="Group 458" transform="translate(-5246.114 9785.88)">
    <path id="Path_488" data-name="Path 488" d="M52.256,0,44.21,11.3C1.233,26.037.252,39.7.966,41.668c-2.1-4.008-.747-9.556,3.7-14.8C11.743,18.5,23.8,11.877,30.945,8.519,30.945,8.519,44,2.583,52.256,0Z" transform="translate(5246.114 -9785.88)" fill="#fff"/>
    <path id="Path_489" data-name="Path 489" d="M53.653,165.79s-41.368,14.127-36.457,24.7a3.994,3.994,0,0,0,1.134,1.335c-1.788-2.436,3.17-9.513,29.733-18.179l5.591-7.858" transform="translate(5231.239 -9932.696)" fill="#fff"/>
    <path id="Path_490" data-name="Path 490" d="M54.049,296.16c-6.2,1.769-17.115,6.621-14.1,9.908a2.873,2.873,0,0,0,.541.42c-2.624-2.564,13.532-6.269,18.623-7.009l4.21-5.909C61.276,294.031,54.63,295.994,54.049,296.16Z" transform="translate(5211.179 -10045.874)" fill="#fff"/>
    <g id="Group_390" data-name="Group 390" transform="translate(5277.958 -9754.418)">
      <path id="Path_485" data-name="Path 485" d="M297.1,278.792c-3.55,0-6,3.338-6,6.393a4.262,4.262,0,0,0,4.6,4.426,5.941,5.941,0,0,0,4.063-1.542l.066-.054-.913-1.135-.073.054a4.493,4.493,0,0,1-3.081,1.188,2.8,2.8,0,0,1-2.983-2.6,2.711,2.711,0,0,1,0-.387v-.26h7.954v-.061a5.668,5.668,0,0,0,.38-2,3.8,3.8,0,0,0-3.563-4.018A3.893,3.893,0,0,0,297.1,278.792Zm2.3,4.674h-6.339a4.324,4.324,0,0,1,3.957-3.2,2.317,2.317,0,0,1,2.455,2.169,2.549,2.549,0,0,1-.006.362s-.054.548-.067.661Zm-8.134-5.267a5.7,5.7,0,0,0-5.248-3.012,8.7,8.7,0,0,0-8.354,8.645,5.622,5.622,0,0,0,5.952,5.8,7.338,7.338,0,0,0,5.457-2.324l.06-.066-1.164-1.148-.067.061a5.656,5.656,0,0,1-4.2,1.836,4,4,0,0,1-4.222-3.78,3.846,3.846,0,0,1,0-.433c0-3.706,2.989-6.964,6.4-6.964A4.118,4.118,0,0,1,289.8,279.1l.047.087,1.495-.922Zm64.142-3.338s-1.568,5.861-1.681,6.315a3.952,3.952,0,0,0-3.8-2.35c-3.149,0-5.8,2.939-5.8,6.4a4.128,4.128,0,0,0,4.123,4.4,4.971,4.971,0,0,0,3.67-1.763c-.114.42-.4,1.522-.4,1.522h1.7l3.87-14.527Zm-6.732,13.225a2.75,2.75,0,0,1-2.783-3.012c0-2.617,1.869-4.747,4.157-4.747a2.958,2.958,0,0,1,3.057,2.854v.2a4.88,4.88,0,0,1-4.43,4.707Zm-39-9.294A5.053,5.053,0,0,0,306,280.555l.413-1.549H304.7L301.1,292.5h1.711s1.334-4.9,1.414-5.287a4,4,0,0,0,3.817,2.376c3.136,0,5.792-2.931,5.792-6.4A4.111,4.111,0,0,0,309.681,278.792Zm-1.809,9.28a2.975,2.975,0,0,1-3.062-2.888V285a4.87,4.87,0,0,1,4.437-4.674,2.725,2.725,0,0,1,2.783,3.018A4.472,4.472,0,0,1,307.873,288.073Zm25.569-9.28c-3.537,0-6,3.338-6,6.393a4.264,4.264,0,0,0,4.6,4.426,5.954,5.954,0,0,0,4.023-1.542l.06-.054-.874-1.135-.067.054a4.492,4.492,0,0,1-3.081,1.188,2.8,2.8,0,0,1-2.983-2.6,2.748,2.748,0,0,1,0-.387v-.26h7.933v-.061a5.837,5.837,0,0,0,.381-2,3.805,3.805,0,0,0-3.578-4.018A3.989,3.989,0,0,0,333.442,278.792Zm2.3,4.674h-6.351a4.324,4.324,0,0,1,3.964-3.2,2.322,2.322,0,0,1,2.454,2.183,2.36,2.36,0,0,1,0,.343s-.047.548-.061.661Zm2.67,5.921h1.721l2.823-10.347h-1.722Zm3.777-14.241L341.682,277h1.94l.507-1.856Zm-19.918,3.673a4.494,4.494,0,0,0-3.336,1.651l1.495-5.608h-1.712l-3.92,14.531h1.711l1.54-5.855a4.066,4.066,0,0,1,3.6-3.218,1.95,1.95,0,0,1,2.2,2.037,4.291,4.291,0,0,1-.155,1.115l-1.568,5.875h1.711l1.561-5.7a6.648,6.648,0,0,0,.26-1.6,3.091,3.091,0,0,0-2.918-3.253,3.151,3.151,0,0,0-.456.009Z" transform="translate(-277.669 -274.861)" fill="#fff"/>
      <path id="Path_486" data-name="Path 486" d="M968.884,369.19A1.882,1.882,0,0,0,967,371.071v.034h0a1.881,1.881,0,1,0,1.881-1.889Zm0,3.432a1.549,1.549,0,1,1,1.539-1.563h0a1.528,1.528,0,0,1-1.495,1.562h-.047Z" transform="translate(-888.35 -358.421)" fill="#fff"/>
      <path id="Path_487" data-name="Path 487" d="M976.61,376.264v2h.456V377.6h.334l.527.667h.57l-.614-.807a.6.6,0,0,0,.427-.562.558.558,0,0,0-.173-.427.828.828,0,0,0-.607-.22Zm.9.427c.08,0,.328,0,.328.228s-.26.247-.342.247h-.434v-.474Z" transform="translate(-896.863 -364.675)" fill="#fff"/>
      <path id="Path_491" data-name="Path 491" d="M461.644,458.635l-.274-1.954H458.7l-1.014,1.956-.847-.047L460.5,452h1l1.048,6.589Zm-.714-5.42a6.218,6.218,0,0,1-.066-.621c0-.014-.154.333-.3.621l-1.528,2.823h2.273Z" transform="translate(-436.398 -431.778)" fill="#fff"/>
      <path id="Path_492" data-name="Path 492" d="M534.739,450.1c-.047.267-.133.561-.133.561a2.672,2.672,0,0,1,1.755-1.1c1.021,0,1.335.788,1.335,1.629,0,1.376-.761,3.432-2.368,3.432a2.007,2.007,0,0,1-1.369-.546c-.047.213-.126.446-.126.446H533s.308-1.055.468-1.909l.975-5.023.814-.18Zm-.667,3.405a2.151,2.151,0,0,0,1.274.434c1.088,0,1.469-1.809,1.469-2.671,0-.527-.147-1.021-.735-1.021-.456,0-1.067.561-1.587,1.161Z" transform="translate(-503.868 -427.712)" fill="#fff"/>
      <path id="Path_493" data-name="Path 493" d="M583.533,469.314a2.43,2.43,0,0,0,0,.367c0,.6.188.987.828.987a3.728,3.728,0,0,0,1.826-.721l-.133.754a3.823,3.823,0,0,1-1.94.621c-1.127,0-1.434-.72-1.434-1.562,0-1.549.847-3.5,2.668-3.5.668,0,1.455.342,1.455,1.062C586.743,468.858,583.953,469.267,583.533,469.314Zm2.362-1.9c0-.326-.307-.514-.74-.514-.94,0-1.388.968-1.561,1.883.533-.1,2.3-.475,2.3-1.37Z" transform="translate(-547.878 -444.411)" fill="#fff"/>
      <path id="Path_494" data-name="Path 494" d="M628.806,458.805h-1.335l-.6,3.082a1.791,1.791,0,0,0,0,.267c0,.213.087.314.333.314a3.363,3.363,0,0,0,1.068-.361l-.093.668a3.01,3.01,0,0,1-1.335.374c-.621,0-.82-.248-.82-.708a2.628,2.628,0,0,1,.06-.527l.621-3.083H625.69l.1-.52.975-.148.485-1.164h.588l-.285,1.191h1.335Z" transform="translate(-585.982 -436.207)" fill="#fff"/>
      <path id="Path_495" data-name="Path 495" d="M661.658,458.805h-1.335l-.6,3.082a1.286,1.286,0,0,0,0,.267c0,.213.094.314.342.314a3.329,3.329,0,0,0,1.061-.361l-.087.668a3.007,3.007,0,0,1-1.335.374c-.621,0-.82-.248-.82-.708a2.2,2.2,0,0,1,.06-.527l.62-3.083h-.954l.1-.52.971-.148.475-1.164h.593l-.286,1.194H661.8Z" transform="translate(-615.146 -436.207)" fill="#fff"/>
      <path id="Path_496" data-name="Path 496" d="M690.577,469.318a2.779,2.779,0,0,0,0,.368c0,.6.18.988.827.988a3.69,3.69,0,0,0,1.815-.722l-.133.754a3.824,3.824,0,0,1-1.94.621c-1.127,0-1.428-.72-1.428-1.561,0-1.549.841-3.5,2.67-3.5.667,0,1.448.342,1.448,1.062C693.76,468.861,691.005,469.27,690.577,469.318Zm2.367-1.9c0-.327-.314-.514-.74-.514-.948,0-1.4.968-1.569,1.883.542-.1,2.309-.474,2.309-1.369Z" transform="translate(-642.705 -444.415)" fill="#fff"/>
      <path id="Path_497" data-name="Path 497" d="M732.58,467.088a2.216,2.216,0,0,1,1.281-.708,2.043,2.043,0,0,1,.407.04l-.215.722a4.168,4.168,0,0,0-.457-.054c-.22,0-.414.066-1.121.668l-.666,3.585H731l.747-3.805a8.265,8.265,0,0,0,.107-1.048h.807A4.059,4.059,0,0,1,732.58,467.088Z" transform="translate(-679.277 -444.516)" fill="#fff"/>
      <path id="Path_498" data-name="Path 498" d="M788.378,471.866h-.961l-.16-2.821V468.03s-.187.571-.374,1.015l-1.255,2.823h-1l-.487-4.846.895-.033.228,3.338v.88c0,.014.215-.594.342-.894l1.428-3.291h.857s.139,3.2.139,3.291v.894c0,.021.213-.533.367-.854l1.57-3.34.881.04Z" transform="translate(-726.354 -445.056)" fill="#fff"/>
      <path id="Path_499" data-name="Path 499" d="M844.862,471.321c-.974,0-1.242-.788-1.242-1.622,0-1.462.8-3.438,2.5-3.438a2.042,2.042,0,0,1,1.167.381c.053-.14.114-.274.114-.274h.715s-.08.307-.173.741l-.421,2.083a19.557,19.557,0,0,0-.2,2H846.5a5.356,5.356,0,0,1,.094-.975A2.317,2.317,0,0,1,844.862,471.321ZM846,466.895c-1.121,0-1.528,1.712-1.528,2.626,0,.554.114,1.115.667,1.115.407,0,.947-.448,1.521-1.162.087-.481.228-1.2.456-2.257a2.008,2.008,0,0,0-1.122-.327Z" transform="translate(-779.047 -444.41)" fill="#fff"/>
      <path id="Path_500" data-name="Path 500" d="M886.342,472.642a2.669,2.669,0,0,1-.995,1.042,3.019,3.019,0,0,1-.968.288V473.3a1.711,1.711,0,0,0,1.269-.848l.366-.614-.9-4.909.867-.033.507,3.171a5.43,5.43,0,0,1,.041.667v.321l2.2-4.1.84.054Z" transform="translate(-815.156 -444.977)" fill="#fff"/>
      <path id="Path_501" data-name="Path 501" d="M925.523,501.166a.474.474,0,0,1-.507-.438.357.357,0,0,1,0-.069.667.667,0,0,1,.626-.707h.041a.474.474,0,0,1,.5.445.346.346,0,0,1,0,.062.667.667,0,0,1-.625.707Z" transform="translate(-851.155 -474.255)" fill="#fff"/>
    </g>
  </g>
</svg>
